<?xml version="1.0" standalone="no"?>
<!DOCTYPE svg PUBLIC "-//W3C//DTD SVG 20010904//EN"
 "http://www.w3.org/TR/2001/REC-SVG-20010904/DTD/svg10.dtd">
<svg version="1.0" xmlns="http://www.w3.org/2000/svg"
 width="1446.000000pt" height="1446.000000pt" viewBox="0 0 1446.000000 1446.000000"
 preserveAspectRatio="xMidYMid meet">
<metadata>
Created by potrace 1.11, written by Peter Selinger 2001-2013
</metadata>
<g transform="translate(0.000000,1446.000000) scale(0.100000,-0.100000)"
fill="#000000" stroke="none">
<path d="M3 11276 l0 -1371 909 0 908 0 1 -25 c0 -14 1 -1447 1 -3185 1 -1739
5 -3192 9 -3230 9 -68 13 -102 24 -157 3 -16 7 -39 9 -53 9 -50 57 -208 87
-283 111 -281 321 -569 544 -747 28 -22 52 -43 55 -46 3 -3 50 -35 106 -72
149 -99 376 -201 524 -237 107 -26 174 -40 250 -51 66 -10 764 -12 3123 -13
1670 -1 3037 3 3037 7 0 5 -6 14 -12 21 -7 7 -34 37 -59 67 -26 30 -118 137
-206 239 -87 102 -325 379 -527 615 -203 237 -376 437 -385 446 -9 9 -25 27
-35 40 -22 27 -308 361 -316 369 -7 7 -183 212 -195 228 -5 7 -17 21 -26 30
-16 17 -54 61 -148 172 -75 89 -207 215 -279 267 -145 103 -372 197 -557 229
-22 4 -418 8 -880 10 -462 2 -892 3 -955 4 l-115 0 0 2677 0 2678 940 1 c841
1 950 3 1034 18 240 44 461 151 639 309 70 62 118 115 337 372 66 77 125 145
130 151 6 6 31 35 56 65 155 181 389 453 424 493 6 6 35 40 65 76 30 36 57 67
60 70 13 12 187 216 213 248 15 20 31 39 35 42 4 3 32 34 62 70 30 36 67 78
81 95 66 75 118 135 160 186 26 29 95 110 154 179 59 69 131 152 159 185 28
33 67 78 86 100 19 22 43 50 53 61 l18 22 -4799 0 -4799 0 0 -1372z"/>
<path d="M10724 12508 c-65 -78 -128 -152 -139 -166 -11 -14 -29 -34 -40 -46
-11 -12 -42 -48 -70 -81 -27 -33 -115 -136 -195 -230 -80 -93 -152 -179 -161
-190 -9 -11 -59 -69 -111 -130 -52 -60 -170 -200 -263 -310 -93 -110 -174
-205 -180 -211 -5 -6 -28 -32 -50 -59 -22 -26 -44 -53 -50 -59 -5 -6 -35 -41
-65 -76 -30 -36 -59 -70 -65 -76 -5 -6 -66 -78 -135 -159 -69 -81 -181 -214
-250 -294 -69 -81 -145 -171 -170 -201 -25 -30 -61 -72 -81 -94 -19 -23 -88
-104 -153 -181 -65 -77 -130 -153 -145 -170 -14 -16 -52 -61 -84 -100 -62 -74
-182 -200 -238 -250 -255 -226 -606 -390 -946 -441 -21 -3 -49 -8 -63 -11 -14
-3 -290 -7 -613 -8 -323 -2 -591 -5 -594 -9 -5 -4 -8 -983 -4 -1216 l1 -45
685 1 685 1 0 -468 c0 -365 -3 -468 -12 -471 -7 -2 -316 -4 -685 -4 -445 1
-673 -2 -674 -9 -3 -39 -1 -1247 3 -1250 2 -2 258 -5 568 -5 487 -2 582 -4
685 -20 402 -59 769 -242 1045 -520 67 -67 142 -154 463 -533 92 -109 178
-210 191 -225 38 -43 157 -183 206 -242 25 -30 59 -70 76 -90 17 -19 42 -48
55 -64 13 -17 40 -48 60 -70 19 -23 86 -102 149 -176 63 -74 116 -137 119
-140 4 -3 42 -48 85 -100 44 -52 90 -106 102 -120 13 -14 87 -101 166 -194
132 -157 422 -498 472 -556 34 -39 409 -482 431 -509 11 -13 41 -47 67 -75
l46 -51 1805 0 c1602 0 1804 2 1797 15 -5 8 -20 29 -34 45 -34 40 -30 35 -125
160 -47 61 -100 130 -120 155 -20 25 -39 49 -44 55 -4 5 -37 49 -75 96 -119
153 -296 381 -337 434 -22 29 -94 121 -160 206 -66 85 -134 172 -151 194 -16
22 -82 106 -145 187 -63 80 -178 229 -257 330 -78 100 -260 334 -403 518 -144
184 -273 351 -287 370 -28 37 -103 133 -187 240 -28 36 -116 148 -194 250 -79
102 -156 201 -171 220 -15 19 -323 415 -684 880 -361 465 -668 859 -681 875
-83 106 -145 189 -145 194 0 3 10 17 23 31 12 14 34 41 47 60 14 19 30 42 37
50 7 8 168 215 359 460 190 245 353 454 362 465 9 11 30 38 47 60 16 22 35 47
42 55 20 24 349 448 415 534 33 43 66 86 73 95 8 9 52 66 99 126 47 61 89 115
94 120 69 88 322 415 456 590 17 22 33 42 37 45 3 3 18 23 34 45 17 22 32 42
35 45 3 3 44 55 90 115 47 61 90 117 97 125 7 8 73 94 148 190 75 96 141 182
148 190 7 8 40 51 74 95 34 44 137 177 230 296 92 119 179 231 193 249 14 18
43 56 66 84 40 50 593 762 670 862 21 28 102 132 178 230 77 99 143 184 148
190 6 9 -457 12 -1800 12 l-1808 0 -120 -140z"/>
</g>
</svg>
